<svg xmlns="http://www.w3.org/2000/svg" viewBox="0 0 100 100" width="100" height="100">
  <defs>
    <linearGradient id="bgGradient" x1="0%" y1="0%" x2="100%" y2="100%">
      <stop offset="0%" style="stop-color:#1e40af;stop-opacity:1" />
      <stop offset="50%" style="stop-color:#3b82f6;stop-opacity:1" />
      <stop offset="100%" style="stop-color:#1e3a8a;stop-opacity:1" />
    </linearGradient>
    <linearGradient id="bookGradient" x1="0%" y1="0%" x2="100%" y2="100%">
      <stop offset="0%" style="stop-color:#1e3a8a;stop-opacity:1" />
      <stop offset="50%" style="stop-color:#1e40af;stop-opacity:1" />
      <stop offset="100%" style="stop-color:#3730a3;stop-opacity:1" />
    </linearGradient>
    <linearGradient id="pageGradient" x1="0%" y1="0%" x2="100%" y2="100%">
      <stop offset="0%" style="stop-color:#f8fafc;stop-opacity:1" />
      <stop offset="100%" style="stop-color:#e2e8f0;stop-opacity:1" />
    </linearGradient>
    <filter id="shadow" x="-50%" y="-50%" width="200%" height="200%">
      <feDropShadow dx="2" dy="4" stdDeviation="3" flood-color="rgba(0,0,0,0.3)"/>
    </filter>
  </defs>
  
  
  <!-- Favicon Background -->
  <rect width="100" height="100" fill="url(#bgGradient)" rx="10" ry="10"/>
  
  <!-- Book Icon -->
  <g transform="translate(20, 15)">
  
  
    <!-- Book Cover -->
    <rect x="0" y="0" width="50" height="65" rx="3" ry="3" 
          fill="url(#bookGradient)" stroke="#1e3a8a" stroke-width="1" filter="url(#shadow)"/>
    
    <!-- Book Pages -->
    <rect x="5" y="-2" width="40" height="65" rx="2" ry="2" 
          fill="url(#pageGradient)" stroke="#cbd5e1" stroke-width="0.5"/>
    
    <!-- Musical Staff Lines -->
    <line x1="10" y1="35" x2="40" y2="35" 
             stroke="#64748b" stroke-width="0.5" opacity="0.7"/><line x1="10" y1="38" x2="40" y2="38" 
             stroke="#64748b" stroke-width="0.5" opacity="0.7"/><line x1="10" y1="41" x2="40" y2="41" 
             stroke="#64748b" stroke-width="0.5" opacity="0.7"/><line x1="10" y1="44" x2="40" y2="44" 
             stroke="#64748b" stroke-width="0.5" opacity="0.7"/><line x1="10" y1="47" x2="40" y2="47" 
             stroke="#64748b" stroke-width="0.5" opacity="0.7"/>
    
    <!-- Musical Notes -->
    <circle cx="15" cy="32" r="2" fill="#1e40af"/>
    <rect x="17" y="22" width="1" height="10" fill="#1e40af"/>
    
    <circle cx="25" cy="39" r="2" fill="#1e40af"/>
    <rect x="27" y="29" width="1" height="10" fill="#1e40af"/>
    
    <circle cx="35" cy="35" r="2" fill="#1e40af"/>
    <rect x="37" y="25" width="1" height="10" fill="#1e40af"/>
    
    <!-- Cross Symbol -->
    <rect x="32" y="50" width="2" height="12" fill="#dc2626" rx="0.5"/>
    <rect x="28" y="54" width="10" height="2" fill="#dc2626" rx="0.5"/>
    
    <!-- Title Lines -->
    <rect x="10" y="8" width="30" height="2" fill="rgba(30, 64, 175, 0.3)" rx="1"/>
    <rect x="10" y="12" width="25" height="1.5" fill="rgba(30, 64, 175, 0.2)" rx="0.5"/>
  </g>
  
  
</svg>